<svg xmlns="http://www.w3.org/2000/svg" version="1.1" xmlnsXlink="http://www.w3.org/1999/xlink" xmlnsSvgjs="http://svgjs.dev/svgjs" width="2000" height="1765" viewBox="0 0 2000 1765"><g transform="matrix(1,0,0,1,-1.9923264969053207,-2.845459966151907)"><svg viewBox="0 0 281 248" data-background-color="#ffffff" preserveAspectRatio="xMidYMid meet" height="1765" width="2000" xmlns="http://www.w3.org/2000/svg" xmlns:xlink="http://www.w3.org/1999/xlink"><g id="tight-bounds" transform="matrix(1,0,0,1,0.2799387529670412,0.40002634420793015)"><svg viewBox="0 0 280.4401393742178 247.2" height="247.2" width="280.4401393742178"><g><svg viewBox="0 0 280.4401393742178 247.2" height="247.2" width="280.4401393742178"><g><svg viewBox="0 0 280.4401393742178 247.2" height="247.2" width="280.4401393742178"><g id="textblocktransform"><svg viewBox="0 0 280.4401393742178 247.2" height="247.2" width="280.4401393742178" id="textblock"><g><svg viewBox="0 0 280.4401393742178 247.2" height="247.2" width="280.4401393742178"><path d="M279.784 53.02C278.465 27.36 274.708 20.227 274.708 20.227 263.172-6.202 248.775-0.506 235.841 3.292 213.006 3.446 190.264 9.091 167.481 12.119 119.663 12.581 71.435 4.986 23.854 23.717 19.385 29.464-4.637 24.846 0.795 56.304 2.219 69.39 7.413 83.913 7.255 95.922 7.967 98.026 8.956 93.202 9.378 96.23 10.854 104.39 13.267 100.541 15.245 105.365 12.489 118.246 14.467 128.971 16.352 140.21 13.03 143.135 8.771 141.749 6.86 151.449 6.662 158.479 5.594 157.145 4.421 156.837 3.564 156.632 1.837 157.402 2.127 159.608 3.115 167.152-1.13 171.514 1.533 178.904-0.299 186.91 2.799 193.838 2.377 202.511 2.324 204.255 2.614 205.744 3.076 206.154 5.119 208.361 2.14 212.672 2.456 217.342 23.419 249.262 46.161 227.195 67.638 241.872 73.215 231.608 69.023 245.516 71.251 243.36 72.991 240.846 74.257 251.263 76.221 245.362 76.524 243.668 76.063 239.665 77.144 240.435 77.711 240.846 78.212 240.743 78.291 238.382 78.41 234.841 77.368 237.048 77.091 235.201 80.084 225.861 79.346 248.081 82.154 247.158 82.022 244.438 81.205 240.538 82.879 241.051 84.54 237.151 84.593 233.918 86.07 242.693 86.122 244.592 86.386 245.926 86.808 246.85 91.422 237.305 96.011 250.237 100.849 245.926 103.815 241.205 106.663 248.492 109.669 246.696 110.724 245.259 111.792 242.693 112.807 247.004 125.24 247.928 138.49 244.079 150.276 247.158 181.773 241.41 215.432 249.518 248.643 241.923 256.474 238.998 264.609 234.841 272.242 231.506 272.242 231.506 278.426 222.371 278.426 181.316S279.744 145.393 279.942 112.703C280.14 80.013 281.062 78.679 279.744 53.02Z" opacity="1" fill="#ed2647" data-fill-palette-color="tertiary"></path><g transform="matrix(1,0,0,1,55.76832000000002,26.230666666666668)"><svg width="168.90349937421774" viewBox="1.3 -39.8 34.650000000000006 39.949999999999996" height="194.73866666666666" data-palette-color="#ffffff"><path d="M1.3-28.2L1.35-39.8 35.9-39.8 35.95-28.2Q34.85-28 34.1-28.2L34.1-28.2 31.75-37.25 21.35-37.25 21.35-2.2 26.4-1.7Q26.6-0.95 26.4 0.15L26.4 0.15Q23.25 0 18.8 0L18.8 0Q15.35 0 11.15 0.1L11.15 0.1Q10.85-0.8 11.15-1.7L11.15-1.7 15.8-2.3Q16-4.2 16-8.15L16-8.15 16-37.25 5.5-37.25 3.15-28.2Q2.4-28 1.3-28.2L1.3-28.2Z" opacity="1" transform="matrix(1,0,0,1,0,0)" fill="#ffffff" class="wordmark-text-0" data-fill-palette-color="quaternary" id="text-0"></path></svg></g></svg></g></svg></g></svg></g><g></g></svg></g><defs></defs></svg><rect width="280.4401393742178" height="247.2" fill="none" stroke="none" visibility="hidden"></rect></g></svg></g></svg>